# xmcd
#
# Track frame offsets: 
#        150
#        21603
#        39780
#        54853
#        70328
#        89343
#        102423
#        117305
#        126378
#        135685
#        152913
#        162773
#        176468
#        187203
#        198958
#        212030
#        219910
#        237450
#        247993
#        255308
#
# Disc length: 3542 seconds
#
# Revision: 3
# Processed by: cddbd v1.5.2PL0 Copyright (c) Steve Scherf et al.
# Submitted via: ExactAudioCopy v0.90b4
#
DISCID=1d0dd414
DTITLE=Tømrerclaus - Tømrerclaus
DYEAR=1978
DGENRE=Progressive Rock
TTITLE0=Sorte Mand
TTITLE1=Når Spindelvævene Blomstrer
TTITLE2=Forvalterdrengen
TTITLE3=Prisen For At Ryge Cigar
TTITLE4=Cellokarma
TTITLE5=Kanibalerne Kommer
TTITLE6=En Dag Da Jeg Lå I Luften
TTITLE7=Mr. Fantastic
TTITLE8=Dauu
TTITLE9=Sådan Er Den Altid
TTITLE10=Koda Er Nedtur
TTITLE11=Jeg Vil Gerne Standses
TTITLE12=Hepar
TTITLE13=Grønbenet Rørhøne
TTITLE14=Hønserock
TTITLE15=En Lille Stue
TTITLE16=Løvesang
TTITLE17=Supersound
TTITLE18=Gamle Skygger
TTITLE19=Guitarstorm
EXTD=
EXTT0=
EXTT1=
EXTT2=
EXTT3=
EXTT4=
EXTT5=
EXTT6=
EXTT7=
EXTT8=
EXTT9=
EXTT10=
EXTT11=
EXTT12=
EXTT13=
EXTT14=
EXTT15=
EXTT16=
EXTT17=
EXTT18=
EXTT19=
PLAYORDER=
